<svg xmlns:xlink="http://www.w3.org/1999/xlink" viewBox="0 0 1792 7168"><defs><path id="a" d="M1037 1395l102-102q19-19 19-45t-19-45L832 896l307-307q19-19 19-45t-19-45l-102-102q-19-19-45-19t-45 19L493 851q-19 19-19 45t19 45l454 454q19 19 45 19t45-19zm627-499q0 209-103 385.5T1281.5 1561 896 1664t-385.5-103T231 1281.5 128 896t103-385.5T510.5 231 896 128t385.5 103T1561 510.5 1664 896z"/><path id="b" d="M845 1395l454-454q19-19 19-45t-19-45L845 397q-19-19-45-19t-45 19L653 499q-19 19-19 45t19 45l307 307-307 307q-19 19-19 45t19 45l102 102q19 19 45 19t45-19zm819-499q0 209-103 385.5T1281.5 1561 896 1664t-385.5-103T231 1281.5 128 896t103-385.5T510.5 231 896 128t385.5 103T1561 510.5 1664 896z"/></defs><use fill="#333" xlink:href="#a"/><use y="1792" xlink:href="#a"/><use y="3584" fill="#333" xlink:href="#b"/><use y="5376" xlink:href="#b"/></svg>